<svg width="24" height="24" viewBox="0 0 24 24" fill="none" xmlns="http://www.w3.org/2000/svg">
<path d="M9.28995 6.70999C9.38247 6.61728 9.49236 6.54373 9.61333 6.49355C9.7343 6.44337 9.86398 6.41754 9.99495 6.41754C10.1259 6.41754 10.2556 6.44337 10.3766 6.49355C10.4976 6.54373 10.6074 6.61728 10.7 6.70999L15.29 11.3C15.3827 11.3925 15.4562 11.5024 15.5064 11.6234C15.5566 11.7443 15.5824 11.874 15.5824 12.005C15.5824 12.136 15.5566 12.2656 15.5064 12.3866C15.4562 12.5076 15.3827 12.6175 15.29 12.71L10.7 17.3C10.6074 17.3926 10.4975 17.466 10.3765 17.5161C10.2555 17.5662 10.1259 17.592 9.99495 17.592C9.86402 17.592 9.73437 17.5662 9.61341 17.5161C9.49245 17.466 9.38254 17.3926 9.28995 17.3C9.19737 17.2074 9.12393 17.0975 9.07383 16.9765C9.02372 16.8556 8.99793 16.7259 8.99793 16.595C8.99793 16.4641 9.02372 16.3344 9.07383 16.2134C9.12393 16.0925 9.19737 15.9826 9.28995 15.89L13.17 12L9.28995 8.11999C8.89995 7.72999 8.90995 7.08999 9.28995 6.70999Z" fill="#631010"/>
</svg>
