<svg width="24" height="24" viewBox="0 0 24 24" fill="none" xmlns="http://www.w3.org/2000/svg">
<path d="M14.71 6.70999C14.6175 6.61728 14.5076 6.54373 14.3867 6.49355C14.2657 6.44337 14.136 6.41754 14.005 6.41754C13.8741 6.41754 13.7444 6.44337 13.6234 6.49355C13.5024 6.54373 13.3926 6.61728 13.3 6.70999L8.71005 11.3C8.61734 11.3925 8.5438 11.5024 8.49361 11.6234C8.44343 11.7443 8.4176 11.874 8.4176 12.005C8.4176 12.136 8.44343 12.2656 8.49361 12.3866C8.5438 12.5076 8.61734 12.6175 8.71005 12.71L13.3 17.3C13.3926 17.3926 13.5025 17.466 13.6235 17.5161C13.7445 17.5662 13.8741 17.592 14.005 17.592C14.136 17.592 14.2656 17.5662 14.3866 17.5161C14.5076 17.466 14.6175 17.3926 14.71 17.3C14.8026 17.2074 14.8761 17.0975 14.9262 16.9765C14.9763 16.8556 15.0021 16.7259 15.0021 16.595C15.0021 16.4641 14.9763 16.3344 14.9262 16.2134C14.8761 16.0925 14.8026 15.9826 14.71 15.89L10.83 12L14.71 8.11999C15.1 7.72999 15.09 7.08999 14.71 6.70999Z" fill="#631010"/>
</svg>
